<svg width="692" height="681" viewBox="0 0 692 681" fill="none" xmlns="http://www.w3.org/2000/svg">
<path d="M39.2952 102.636C54.3771 103.407 69.1658 98.3 80.4519 88.4199C94.7556 74.327 102.393 60.7272 103.851 46.7986C104.882 40.5138 104.388 34.0776 102.41 28.0159C100.441 21.9543 97.0316 16.4392 92.4796 11.9214C87.9277 7.40359 82.3528 4.01127 76.2154 2.02151C70.0779 0.0318298 63.5483 -0.498947 57.1637 0.472926C25.6172 3.45178 -0.96741 33.0962 0.158642 63.7882C0.32998 73.9892 4.49923 83.7297 11.7934 90.9706C19.0885 98.2118 28.9433 102.392 39.2952 102.636Z" fill="url(#paint0_linear_4_7)"/>
<path d="M5.03777 227.766V226.123C5.0301 222.556 5.01988 218.964 5.01051 215.355C4.96703 199.262 4.92188 182.826 5.05827 166.649C5.1418 159.829 6.55935 155.063 9.49936 152.166C12.4394 149.27 17.0476 147.893 23.7195 147.523C96.196 143.62 145.611 94.8908 149.677 23.4197C150.41 10.0459 155.516 5.25927 169.198 5.13598C189.963 4.93055 211.205 4.99218 231.203 5.0949C239.668 5.21816 245.507 6.86164 248.575 9.88154C251.636 12.9014 252.974 18.3249 252.744 26.3164C250.868 86.3035 227.827 138.957 184.328 182.838C140.565 224.521 87.8167 246.872 27.7438 248.947C18.9451 249.275 13.1486 247.838 9.89576 244.879C6.64291 241.921 5.07954 236.313 5.03777 227.766Z" fill="url(#paint1_linear_4_7)"/>
<path d="M240.904 314.913C211.163 298.723 179.955 285.285 147.7 274.771L147.154 274.606C140.292 272.284 138.945 271.361 138.587 268.751C138.434 267.869 138.519 266.964 138.826 266.122C139.133 265.281 139.653 264.531 140.335 263.944C142.065 262.395 144 261.095 146.088 260.082C166.291 249.57 185.13 236.685 202.178 221.706C260.024 169.978 290.813 104.67 293.694 27.6315C294.359 9.47103 298.758 5.30065 317.17 5.239C332.198 5.2253 347.226 5.22531 362.255 5.23903L373.362 5.21851C383.224 5.23907 389.669 6.90312 392.712 10.0258C395.755 13.1484 397.093 19.0649 396.778 28.1246C393.3 127.576 356.603 211.928 284.565 285.987C282.101 288.082 279.433 290.302 276.595 292.644C275.683 293.41 274.753 294.189 273.807 294.979C266.741 300.892 258.949 307.408 251.244 314.132C247.783 317.131 245.822 317.665 240.904 314.913Z" fill="url(#paint2_linear_4_7)"/>
<path d="M544.878 407.091C550.01 408.817 552.158 410.933 552.43 412.269C552.678 413.46 551.68 416.007 548.032 419.314C544.426 421.513 540.624 423.69 536.771 425.889C527.105 431.221 517.771 437.114 508.812 443.536C437.916 496.784 400.341 568.071 397.238 655.401C396.676 671.24 391.629 676.088 375.612 676.13H371.444C352.844 676.171 333.622 676.212 314.732 676.088C306.992 676.027 301.281 674.178 298.297 671.117C295.322 668.056 293.924 663.023 294.154 656.14C297.701 553.464 335.105 466.523 405.558 397.107C415.412 387.396 425.905 378.043 437.038 369.045C442.877 364.32 446.074 364.053 452.62 367.709C482.037 383.692 512.929 396.878 544.878 407.091Z" fill="url(#paint3_linear_4_7)"/>
<path d="M371.776 246.933L376.098 252.09C384.725 262.826 393.897 273.118 403.597 282.926C476.658 352.075 564.543 388.499 664.814 391.232C672.546 391.416 677.848 390.06 681.036 386.999L681.164 386.876C684.335 383.754 685.895 378.433 685.937 370.626L685.954 370.072C686.039 349.857 686.082 328.862 685.954 308.441C685.767 295.93 679.911 290.157 667.005 289.767C584.141 287.631 514.796 255.213 460.812 193.438C447.923 178.328 436.722 161.894 427.405 144.422C423.714 137.704 421.447 136.574 418.464 136.8C415.48 137.025 414.832 138.443 412.479 145.325C401.594 177.525 387.785 208.693 371.214 238.449C368.921 242.517 369.364 244.016 371.776 246.933Z" fill="url(#paint4_linear_4_7)"/>
<path d="M25.1789 290.137C143.565 294.04 241.381 341.105 315.9 429.977C321.321 436.469 321.654 440.002 317.571 447.068C301.988 474.67 289.159 503.689 279.246 533.722L278.512 535.961C276.117 543.336 275.137 544.179 272.409 544.363C268.36 544.692 266.613 542.514 262.376 534.687C249.53 510.939 233.121 489.234 213.711 470.304C162.003 420.383 99.2818 393.923 27.2852 391.683C9.58288 391.129 5.01647 386.548 5.01647 369.332L4.99514 354.438C4.95423 339.797 4.96107 325.15 5.01647 310.496C5.05824 302.977 6.70511 297.532 9.9162 294.369L10.0833 294.205C13.1895 291.266 18.2563 289.89 25.1789 290.137Z" fill="url(#paint5_linear_4_7)"/>
<path d="M686.21 468.845C686.184 462.298 686.176 455.745 686.184 449.185C686.287 446.816 685.895 444.451 685.025 442.241C684.147 440.032 682.817 438.023 681.121 436.345C677.745 433.264 673.159 431.866 666.067 431.99C607.685 431.99 549.43 456.765 506.374 499.188C463.207 541.713 438.436 598.989 438.564 656.387C438.547 670.624 443.968 675.965 458.519 676.047C480.52 676.232 502.163 676.191 522.843 675.985C535.561 675.78 540.897 670.85 541.647 658.154C545.901 585.923 594.404 538.18 668.173 533.496C680.575 532.735 685.98 527.497 686.065 515.869C686.253 500.359 686.329 484.458 686.21 468.845Z" fill="url(#paint6_linear_4_7)"/>
<path d="M438.504 26.0495C440.149 77.5111 456.789 123.076 487.876 161.39C533.703 217.844 594.234 247.365 667.815 249.152C670.27 249.569 672.793 249.408 675.171 248.684C677.558 247.961 679.732 246.693 681.522 244.985C683.312 243.278 684.667 241.178 685.477 238.858C686.287 236.537 686.534 234.06 686.184 231.629C686.5 208.558 686.5 186.125 686.167 164.883C685.98 153.522 680.533 147.955 669.443 147.873C635.474 147.581 602.979 134.118 579.009 110.399C555.039 86.6798 541.511 54.6126 541.358 21.1395C541.358 8.27929 532.33 5.38273 524.821 5.30057C510.875 5.04491 496.742 5.05019 482.779 5.05545H482.77L482.762 5.05552L482.753 5.05558C478.773 5.05708 474.809 5.05855 470.862 5.05401L454.555 5.1362C452.407 5.10428 450.268 5.50488 448.281 6.31376C446.287 7.12263 444.488 8.32274 442.988 9.84062C439.484 13.4974 438.146 18.1813 438.504 26.0495Z" fill="url(#paint7_linear_4_7)"/>
<path d="M248.49 671.384C245.277 674.589 239.838 676.129 231.493 676.129C211.691 676.211 190.585 676.293 169.487 675.924C155.312 675.924 150.368 671.178 149.617 656.88C145.884 586.765 95.4033 537.152 24.0323 533.516C10.125 532.838 5.16308 527.949 5.01731 514.781C4.80847 494.442 4.89203 473.816 5.05826 451.506C5.16311 444.46 6.45535 439.693 9.64597 436.55C12.8357 433.407 17.8821 432.051 25.2419 432.072C85.2253 432.175 144.426 459.395 196.552 510.753C230.351 545 250.741 597.344 252.659 654.497C253.034 662.797 251.704 668.179 248.49 671.384Z" fill="url(#paint8_linear_4_7)"/>
<path d="M674.95 94.6651C657.91 107.711 629.413 104.649 610.08 87.6184C591.293 71.0809 584.124 51.6468 588.164 28.2682L588.249 27.7341L588.582 27.0356C597.762 6.86184 612.936 1.39729 624.034 0.329023C643.862 -1.54049 666.442 9.40935 678.973 26.9741C696.797 51.9345 695.195 79.1136 674.95 94.6651Z" fill="url(#paint9_linear_4_7)"/>
<path d="M610.08 593.318C593.176 609.98 585.539 627.277 587.15 644.678C587.943 654.163 592.179 663.047 599.092 669.698C606.005 676.348 615.118 680.316 624.759 680.875C633.53 681.08 642.25 679.52 650.383 676.293C658.523 673.066 665.905 668.237 672.077 662.104C678.257 655.971 683.107 648.66 686.321 640.62C689.534 632.58 691.052 623.978 690.77 615.341C690.157 605.848 686.048 596.902 679.22 590.176C672.392 583.45 663.314 579.403 653.681 578.794C645.788 578.074 637.826 578.995 630.316 581.497C622.807 583.999 615.911 588.026 610.08 593.318Z" fill="url(#paint10_linear_4_7)"/>
<path d="M77.1529 678.646C71.4246 680.619 65.3383 681.365 59.2946 680.834C29.9328 679.232 2.95192 653.511 0.345205 624.852C-0.462893 618.595 0.151684 612.238 2.14636 606.244C4.14103 600.25 7.46463 594.768 11.8759 590.196L12.3763 589.702C17.1678 585.334 22.9063 582.098 29.1563 580.241C35.4062 578.382 42.004 577.951 48.4483 578.98C62.6872 580.766 74.7405 587.094 87.399 599.564C97.1508 609.544 103.015 622.596 103.953 636.419C104.575 642.355 103.893 648.354 101.958 654.009C100.015 659.662 96.8609 664.839 92.7182 669.186L92.505 669.391C88.1151 673.518 82.8812 676.672 77.1529 678.646Z" fill="url(#paint11_linear_4_7)"/>
<defs>
<linearGradient id="paint0_linear_4_7" x1="0.000115437" y1="682.621" x2="404.216" y2="333.237" gradientUnits="userSpaceOnUse">
<stop stop-color="#D95DB0"/>
<stop offset="1" stop-color="#3344DC"/>
</linearGradient>
<linearGradient id="paint1_linear_4_7" x1="-2.21983e-05" y1="682.621" x2="404.216" y2="333.237" gradientUnits="userSpaceOnUse">
<stop stop-color="#D95DB0"/>
<stop offset="1" stop-color="#3344DC"/>
</linearGradient>
<linearGradient id="paint2_linear_4_7" x1="-4.91876e-05" y1="682.622" x2="404.216" y2="333.237" gradientUnits="userSpaceOnUse">
<stop stop-color="#D95DB0"/>
<stop offset="1" stop-color="#3344DC"/>
</linearGradient>
<linearGradient id="paint3_linear_4_7" x1="-7.57999e-05" y1="682.621" x2="404.216" y2="333.237" gradientUnits="userSpaceOnUse">
<stop stop-color="#D95DB0"/>
<stop offset="1" stop-color="#3344DC"/>
</linearGradient>
<linearGradient id="paint4_linear_4_7" x1="-5.0066e-05" y1="682.621" x2="404.216" y2="333.237" gradientUnits="userSpaceOnUse">
<stop stop-color="#D95DB0"/>
<stop offset="1" stop-color="#3344DC"/>
</linearGradient>
<linearGradient id="paint5_linear_4_7" x1="-5.77603e-05" y1="682.622" x2="404.216" y2="333.237" gradientUnits="userSpaceOnUse">
<stop stop-color="#D95DB0"/>
<stop offset="1" stop-color="#3344DC"/>
</linearGradient>
<linearGradient id="paint6_linear_4_7" x1="-6.91544e-05" y1="682.621" x2="404.216" y2="333.237" gradientUnits="userSpaceOnUse">
<stop stop-color="#D95DB0"/>
<stop offset="1" stop-color="#3344DC"/>
</linearGradient>
<linearGradient id="paint7_linear_4_7" x1="0.000152316" y1="682.622" x2="404.217" y2="333.237" gradientUnits="userSpaceOnUse">
<stop stop-color="#D95DB0"/>
<stop offset="1" stop-color="#3344DC"/>
</linearGradient>
<linearGradient id="paint8_linear_4_7" x1="-3.78111e-05" y1="682.621" x2="404.216" y2="333.237" gradientUnits="userSpaceOnUse">
<stop stop-color="#D95DB0"/>
<stop offset="1" stop-color="#3344DC"/>
</linearGradient>
<linearGradient id="paint9_linear_4_7" x1="-0.000313498" y1="682.621" x2="404.216" y2="333.237" gradientUnits="userSpaceOnUse">
<stop stop-color="#D95DB0"/>
<stop offset="1" stop-color="#3344DC"/>
</linearGradient>
<linearGradient id="paint10_linear_4_7" x1="0.000285744" y1="682.621" x2="404.217" y2="333.237" gradientUnits="userSpaceOnUse">
<stop stop-color="#D95DB0"/>
<stop offset="1" stop-color="#3344DC"/>
</linearGradient>
<linearGradient id="paint11_linear_4_7" x1="-3.24748e-05" y1="682.622" x2="404.216" y2="333.238" gradientUnits="userSpaceOnUse">
<stop stop-color="#D95DB0"/>
<stop offset="1" stop-color="#3344DC"/>
</linearGradient>
</defs>
</svg>
