<svg width="206" height="564" viewBox="0 0 206 564" fill="none" xmlns="http://www.w3.org/2000/svg">
<mask id="mask0_4_62" style="mask-type:alpha" maskUnits="userSpaceOnUse" x="0" y="0" width="206" height="564">
<path d="M29.8413 2.23804H176.063C191.308 2.23804 203.667 14.5964 203.667 29.8412V534.159C203.667 549.403 191.308 561.762 176.063 561.762H29.8413C14.5965 561.762 2.2381 549.403 2.2381 534.159V29.8412C2.2381 14.5964 14.5965 2.23804 29.8413 2.23804Z" fill="#0A090F" stroke="url(#paint0_linear_4_62)" stroke-width="4.47619"/>
</mask>
<g mask="url(#mask0_4_62)">
<path d="M78.7132 343.361C83.0639 344.855 84.8855 346.685 85.1155 347.842C85.3276 348.873 84.4787 351.077 81.3837 353.94C78.324 355.842 75.1052 357.727 71.8334 359.629C63.6344 364.244 55.715 369.344 48.1168 374.902C-12.0147 420.986 -43.8843 482.68 -46.5195 558.258C-46.9969 571.966 -51.2769 576.162 -64.8596 576.198H-68.3967C-84.1724 576.233 -100.479 576.269 -116.502 576.162C-123.063 576.11 -127.909 574.509 -130.438 571.86C-132.967 569.21 -134.152 564.855 -133.958 558.899C-130.951 470.037 -99.2232 394.795 -39.463 334.721C-31.1036 326.317 -22.2016 318.221 -12.7576 310.434C-7.80554 306.344 -5.09966 306.113 0.453705 309.278C25.405 323.111 51.6098 334.522 78.7132 343.361Z" fill="url(#paint1_linear_4_62)"/>
<path d="M-68.1138 204.754L-64.4528 209.217C-57.1363 218.507 -49.3503 227.414 -41.1253 235.903C20.8455 295.748 95.3909 327.271 180.441 329.636C187.003 329.795 191.494 328.622 194.201 325.973L194.307 325.867C196.996 323.163 198.322 318.558 198.358 311.802L198.374 311.322C198.446 293.828 198.482 275.657 198.374 257.985C198.216 247.157 193.246 242.162 182.299 241.823C112.015 239.974 53.1926 211.919 7.4043 158.457C-3.52677 145.38 -13.0256 131.157 -20.9281 116.036C-24.0585 110.222 -25.9864 109.244 -28.5154 109.44C-31.0445 109.635 -31.5928 110.862 -33.5913 116.818C-42.8255 144.685 -54.5396 171.659 -68.5914 197.412C-70.5367 200.932 -70.1653 202.23 -68.1138 204.754Z" fill="url(#paint2_linear_4_62)"/>
<path d="M198.588 396.805C198.565 391.14 198.559 385.469 198.571 379.79C198.658 377.74 198.321 375.694 197.581 373.781C196.842 371.868 195.715 370.132 194.273 368.678C191.408 366.012 187.517 364.802 181.504 364.91C131.984 364.91 82.5698 386.35 46.0488 423.066C9.43929 459.867 -11.5714 509.437 -11.4653 559.112C-11.4829 571.433 -6.88465 576.056 5.45997 576.126C24.1185 576.287 42.4762 576.251 60.0205 576.074C70.8087 575.895 75.3364 571.629 75.9732 560.641C79.581 498.128 120.718 456.81 183.29 452.756C193.813 452.098 198.394 447.565 198.464 437.501C198.624 424.079 198.694 410.317 198.588 396.805Z" fill="url(#paint3_linear_4_62)"/>
<path d="M-11.5188 13.5918C-10.1216 58.1287 3.99166 97.563 30.3611 130.721C69.2343 179.579 120.576 205.127 182.99 206.675C185.071 207.034 187.209 206.895 189.228 206.269C191.248 205.642 193.091 204.545 194.61 203.068C196.127 201.59 197.278 199.774 197.965 197.764C198.653 195.756 198.861 193.613 198.57 191.508C198.835 171.542 198.835 152.128 198.552 133.744C198.394 123.912 193.777 119.094 184.368 119.023C155.552 118.77 127.995 107.119 107.661 86.5913C87.3278 66.0637 75.8543 38.3115 75.7249 9.3425C75.7249 -1.78729 68.067 -4.29408 61.7003 -4.36519C49.8706 -4.58645 37.8804 -4.58188 26.0376 -4.57731H26.0304L26.0261 -4.57727L26.017 -4.57723C22.6401 -4.57591 19.2752 -4.57464 15.9294 -4.57857L2.09922 -4.50744C0.273729 -4.53506 -1.53809 -4.18838 -3.22578 -3.48833C-4.9134 -2.7883 -6.44138 -1.74968 -7.71634 -0.43604C-10.6875 2.72865 -11.8195 6.78233 -11.5188 13.5918Z" fill="url(#paint4_linear_4_62)"/>
<path d="M189.037 72.9746C174.588 84.2644 150.412 81.6151 134.017 66.8762C118.082 52.5639 111.998 35.7448 115.429 15.5121L115.5 15.0498L115.783 14.4453C123.565 -3.01391 136.44 -7.74316 145.849 -8.66771C162.668 -10.2856 181.821 -0.809186 192.451 14.392C207.571 35.9938 206.211 59.5157 189.037 72.9746Z" fill="url(#paint5_linear_4_62)"/>
<path d="M134.017 504.529C119.674 518.949 113.201 533.918 114.563 548.978C115.236 557.187 118.834 564.876 124.696 570.631C130.557 576.387 138.288 579.822 146.468 580.305C153.905 580.481 161.301 579.132 168.202 576.339C175.103 573.546 181.365 569.367 186.605 564.06C191.845 558.751 195.954 552.424 198.68 545.467C201.408 538.508 202.694 531.064 202.461 523.589C201.936 515.374 198.453 507.631 192.663 501.809C186.872 495.989 179.17 492.487 170.998 491.96C164.302 491.336 157.551 492.133 151.18 494.298C144.81 496.465 138.963 499.949 134.017 504.529Z" fill="url(#paint6_linear_4_62)"/>
</g>
<defs>
<linearGradient id="paint0_linear_4_62" x1="105.46" y1="505.007" x2="92.4129" y2="22.4212" gradientUnits="userSpaceOnUse">
<stop stop-color="#D95DB0"/>
<stop offset="1" stop-color="#3344DC"/>
</linearGradient>
<linearGradient id="paint1_linear_4_62" x1="51.1361" y1="522.389" x2="313.317" y2="112.516" gradientUnits="userSpaceOnUse">
<stop stop-color="#D95DB0"/>
<stop offset="1" stop-color="#3344DC"/>
</linearGradient>
<linearGradient id="paint2_linear_4_62" x1="51.1361" y1="522.389" x2="313.317" y2="112.516" gradientUnits="userSpaceOnUse">
<stop stop-color="#D95DB0"/>
<stop offset="1" stop-color="#3344DC"/>
</linearGradient>
<linearGradient id="paint3_linear_4_62" x1="51.1362" y1="522.389" x2="313.317" y2="112.516" gradientUnits="userSpaceOnUse">
<stop stop-color="#D95DB0"/>
<stop offset="0.57" stop-color="#7A4FC9"/>
<stop offset="1" stop-color="#3344DC"/>
</linearGradient>
<linearGradient id="paint4_linear_4_62" x1="51.1361" y1="522.389" x2="313.317" y2="112.516" gradientUnits="userSpaceOnUse">
<stop stop-color="#D95DB0"/>
<stop offset="1" stop-color="#3344DC"/>
</linearGradient>
<linearGradient id="paint5_linear_4_62" x1="51.1362" y1="522.389" x2="313.317" y2="112.516" gradientUnits="userSpaceOnUse">
<stop stop-color="#D95DB0"/>
<stop offset="1" stop-color="#3344DC"/>
</linearGradient>
<linearGradient id="paint6_linear_4_62" x1="51.1361" y1="522.389" x2="313.317" y2="112.516" gradientUnits="userSpaceOnUse">
<stop stop-color="#D95DB0"/>
<stop offset="1" stop-color="#3344DC"/>
</linearGradient>
</defs>
</svg>
